<?xml version="1.0" standalone="no"?>
<!DOCTYPE svg PUBLIC "-//W3C//DTD SVG 20010904//EN"
 "http://www.w3.org/TR/2001/REC-SVG-20010904/DTD/svg10.dtd">
<svg version="1.0" xmlns="http://www.w3.org/2000/svg"
 width="500.000000pt" height="500.000000pt" viewBox="0 0 500.000000 500.000000"
 preserveAspectRatio="xMidYMid meet">
<metadata>
Created by potrace 1.14, written by Peter Selinger 2001-2017
</metadata>
<g transform="translate(0.000000,500.000000) scale(0.100000,-0.100000)"
fill="#000000" stroke="none">
<path d="M0 2500 l0 -2500 2500 0 2500 0 0 2500 0 2500 -2500 0 -2500 0 0
-2500z m2426 885 c14 -27 25 -35 47 -35 21 0 33 8 48 35 l21 35 111 0 c179 0
301 -39 394 -125 l48 -44 -278 -1 -277 0 -17 35 c-14 29 -22 35 -48 35 -25 0
-34 -7 -50 -35 -18 -34 -21 -36 -67 -33 -45 3 -50 6 -72 43 l-24 40 25 43 c24
40 27 42 72 42 44 0 49 -3 67 -35z m-216 -210 c29 -47 61 -47 90 0 l22 35 405
-2 406 -3 28 -55 c15 -30 30 -65 34 -77 l6 -23 -441 0 -441 0 -17 30 c-24 42
-71 42 -95 0 -16 -27 -23 -30 -70 -30 -50 0 -53 1 -74 41 l-22 41 25 39 c23
37 27 39 73 39 46 0 51 -3 71 -35z m-264 -207 l27 -42 -23 -43 c-22 -42 -24
-43 -74 -43 -49 0 -52 2 -74 40 -22 38 -22 41 -6 72 26 53 34 58 80 58 41 0
46 -3 70 -42z m495 7 c16 -27 28 -35 49 -35 21 0 33 8 49 35 l20 35 325 0
c366 0 336 7 336 -85 0 -93 30 -85 -339 -85 l-326 0 -19 35 c-15 27 -26 35
-46 35 -20 0 -31 -8 -46 -35 l-19 -35 -120 0 -120 0 -23 42 -22 41 25 44 26
43 115 0 115 0 20 -35z m-257 -210 c14 -26 26 -35 45 -35 20 0 31 9 45 35 l19
35 454 0 c376 0 453 -2 453 -14 0 -7 -16 -45 -36 -85 l-35 -71 -417 0 -417 0
-19 35 c-15 27 -25 35 -47 35 -20 0 -32 -9 -48 -35 -19 -32 -24 -35 -68 -35
-47 0 -49 1 -72 44 l-24 43 23 42 c23 40 25 41 75 41 47 0 52 -2 69 -35z m-83
-200 c30 -50 69 -49 99 2 l21 36 431 -7 c238 -3 433 -8 435 -10 8 -7 -101 -86
-152 -110 -86 -41 -127 -45 -432 -46 l-292 0 -16 30 c-12 23 -22 30 -45 30
-23 0 -33 -7 -45 -30 l-16 -30 -128 0 -129 0 -21 36 c-26 44 -26 46 4 94 l25
40 120 0 121 0 20 -35z m-651 -354 c19 -37 12 -51 -25 -51 -19 0 -35 5 -35 10
0 6 -4 10 -10 10 -5 0 -10 -9 -10 -20 0 -16 7 -20 35 -20 40 0 55 -20 55 -74
0 -49 -21 -66 -84 -66 -59 0 -76 12 -76 52 0 25 4 28 30 28 18 0 33 -6 36 -15
9 -24 24 -17 24 10 0 22 -4 25 -39 25 -44 0 -51 10 -51 69 0 50 14 61 82 61
46 0 59 -4 68 -19z m231 -91 c15 -58 28 -108 28 -112 1 -5 -15 -8 -34 -8 -24
0 -35 5 -35 15 0 10 -10 15 -30 15 -20 0 -30 -5 -30 -15 0 -10 -10 -15 -34
-15 l-34 0 29 108 c16 59 29 111 29 115 0 5 19 7 42 5 l41 -3 28 -105z m159
20 l0 -90 35 0 c31 0 35 -3 35 -25 0 -24 -2 -25 -70 -25 l-70 0 0 115 0 115
35 0 35 0 0 -90z m220 40 c7 -27 16 -50 20 -50 4 0 13 23 20 50 12 49 12 50
51 50 l39 0 0 -115 0 -115 -30 0 c-30 0 -30 0 -31 63 -2 61 -2 61 -12 25 -9
-32 -15 -38 -37 -38 -22 0 -28 6 -37 38 -10 36 -10 36 -12 -25 -1 -63 -1 -63
-31 -63 l-30 0 0 115 0 115 39 0 c39 0 39 -1 51 -50z m357 -62 l30 -113 -30
-3 c-20 -2 -33 2 -39 12 -12 21 -58 21 -58 1 0 -10 -11 -15 -35 -15 -19 0 -35
3 -35 8 0 8 47 189 55 210 2 7 21 12 43 12 l39 0 30 -112z m353 87 c0 -18 -5
-25 -20 -25 -19 0 -20 -7 -20 -90 l0 -90 -35 0 -35 0 0 90 c0 83 -1 90 -20 90
-15 0 -20 7 -20 25 0 24 2 25 75 25 73 0 75 -1 75 -25z m200 -17 c12 -45 37
-141 46 -170 4 -15 -1 -18 -30 -18 -25 0 -36 4 -36 15 0 10 -10 15 -30 15 -20
0 -30 -5 -30 -15 0 -11 -11 -15 -36 -15 -29 0 -34 3 -30 18 3 9 10 37 16 62
38 151 38 150 80 150 38 0 40 -2 50 -42z m180 -3 c0 -38 3 -45 20 -45 17 0 20
7 20 45 0 43 1 45 30 45 l30 0 0 -115 0 -115 -30 0 c-29 0 -30 2 -30 45 0 38
-3 45 -20 45 -17 0 -20 -7 -20 -45 0 -45 0 -45 -35 -45 l-35 0 0 115 0 115 35
0 c35 0 35 0 35 -45z m320 20 c0 -22 -4 -25 -40 -25 -33 0 -40 -3 -40 -20 0
-16 7 -20 35 -20 31 0 35 -3 35 -25 0 -22 -4 -25 -35 -25 -28 0 -35 -4 -35
-20 0 -17 7 -20 40 -20 36 0 40 -2 40 -25 0 -24 -2 -25 -70 -25 l-70 0 0 115
0 115 70 0 c68 0 70 -1 70 -25z m218 13 c17 -17 15 -113 -3 -128 -13 -10 -12
-17 5 -51 l20 -39 -35 0 c-32 0 -38 4 -53 38 l-17 37 -3 -37 c-3 -35 -6 -38
-33 -38 l-29 0 0 115 0 115 68 0 c40 0 73 -5 80 -12z m-1460 -490 c2 -65 0
-78 -13 -78 -12 0 -15 13 -15 65 0 37 -4 65 -10 65 -6 0 -10 -28 -10 -65 0
-58 -2 -65 -20 -65 -18 0 -20 7 -20 65 0 37 -4 65 -10 65 -6 0 -10 -28 -10
-65 0 -58 -2 -65 -20 -65 -18 0 -20 7 -20 64 0 95 1 96 78 93 l67 -2 3 -77z
m690 -1 c3 -72 2 -77 -18 -77 -19 0 -20 5 -19 80 1 69 4 81 18 78 13 -3 17
-19 19 -81z m-558 -2 c0 -25 5 -45 10 -45 6 0 10 20 10 45 0 38 3 45 20 45 18
0 20 -7 20 -61 l0 -60 -42 3 -43 3 -3 58 c-2 46 0 57 13 57 11 0 15 -11 15
-45z m238 -17 c3 -53 1 -58 -18 -58 -17 0 -20 7 -22 48 l-2 47 -3 -47 c-3 -40
-8 -48 -24 -48 -17 0 -19 7 -19 61 l0 60 43 -3 42 -3 3 -57z m182 43 c5 -11
10 -38 10 -60 0 -34 -3 -41 -20 -41 -17 0 -20 7 -20 45 0 25 -4 45 -10 45 -5
0 -10 -20 -10 -45 0 -38 -3 -45 -20 -45 -18 0 -20 7 -20 60 l0 60 40 0 c29 0
42 -5 50 -19z"/>
<path d="M1605 2117 c-8 -28 -3 -42 12 -36 5 2 6 18 2 34 l-6 30 -8 -28z"/>
<path d="M2341 2128 c-1 -9 -4 -23 -7 -32 -4 -11 -1 -16 10 -16 17 0 19 14 6
45 -7 16 -9 17 -9 3z"/>
<path d="M2908 2105 c-4 -17 -1 -25 8 -25 8 0 14 11 14 25 0 14 -4 25 -9 25
-5 0 -11 -11 -13 -25z"/>
<path d="M3602 2153 c4 -39 28 -42 28 -4 0 21 -5 31 -16 31 -11 0 -14 -8 -12
-27z"/>
</g>
</svg>
